# xmcd CD database file
#
# Track frame offsets:
#	150
#	19420
#	38767
#	55365
#	74622
#
# Disc length: 1251 seconds
#
# Revision: 0
# Processed by: cddbd v1.5PL3 Copyright (c) Steve Scherf et al.
# Submitted via: CDex 1.50beta10
#
DISCID=4504e105
DTITLE=パーキッツ - 「わがまま☆フェアリー　ミルモでポン！」 オープニングテーマ
DYEAR=2004
DGENRE=Vocal
TTITLE0=らびゅ らびゅ
TTITLE1=さよならサンクチュアリ
TTITLE2=プランタン
TTITLE3=らびゅ らびゅ　（カラオケ）
TTITLE4=さよならサンクチュアリ　（カラオケ）
EXTD=YEAR: 2004
EXTT0=
EXTT1=
EXTT2=
EXTT3=
EXTT4=
PLAYORDER=
